<?xml version="1.0" encoding="utf-8"?>
<!-- Generator: Adobe Illustrator 24.2.1, SVG Export Plug-In . SVG Version: 6.00 Build 0)  -->
<svg version="1.1" id="layer_1" xmlns="http://www.w3.org/2000/svg" xmlns:xlink="http://www.w3.org/1999/xlink" x="0px" y="0px"
	 viewBox="0 0 82.43 71.6" style="enable-background:new 0 0 82.43 71.6;" xml:space="preserve">
<style type="text/css">
	.st0{fill-rule:evenodd;clip-rule:evenodd;fill:url(#SVGID_1_);}
	.st1{fill-rule:evenodd;clip-rule:evenodd;fill:url(#SVGID_2_);}
	.st2{fill-rule:evenodd;clip-rule:evenodd;fill:url(#SVGID_3_);}
	.st3{fill-rule:evenodd;clip-rule:evenodd;fill:url(#SVGID_4_);}
	.st4{fill-rule:evenodd;clip-rule:evenodd;fill:url(#SVGID_5_);}
</style>
<g>
	<linearGradient id="SVGID_1_" gradientUnits="userSpaceOnUse" x1="15.9308" y1="71.6018" x2="15.9308" y2="52.6886">
		<stop  offset="0" style="stop-color:#08625F"/>
		<stop  offset="1" style="stop-color:#4CC5C0"/>
	</linearGradient>
	<path class="st0" d="M0.29,68.49l8.64-14.76c0.35-0.63,1.02-1.05,1.79-1.05l9.92,0.01l7.66,0.01l3.56,0l-1.78,3.08l0,0l-2.28,3.95
		l-6.15,10.66c-0.33,0.71-1.04,1.21-1.88,1.21H2.06v-0.01c-0.35,0-0.71-0.09-1.04-0.28C0.04,70.74-0.29,69.48,0.29,68.49L0.29,68.49
		z"/>
	<linearGradient id="SVGID_2_" gradientUnits="userSpaceOnUse" x1="37.514" y1="36.0276" x2="37.514" y2="-9.094947e-13">
		<stop  offset="0" style="stop-color:#08625F"/>
		<stop  offset="1" style="stop-color:#4CC5C0"/>
	</linearGradient>
	<path class="st1" d="M23.35,28.21l2.35-4.01L39.27,1.02l0,0c0.17-0.3,0.43-0.56,0.75-0.74c0.98-0.57,2.24-0.23,2.81,0.76
		l9.03,15.64c0.35,0.61,0.38,1.39,0,2.05l-3.17,5.48h0L43,34.05l-0.5,0.87c-0.02,0.04-0.05,0.09-0.07,0.13l-0.56,0.98l-1.19-0.01
		h-0.01l-15.72-0.15l-2.04-0.02l0-2.04l0-2.91c0-0.07,0-0.14,0-0.21v-0.01l0,0l0-0.02l0.01-0.05l0-0.01l0-0.01l0-0.01l0,0l0-0.01
		l0,0l0.16-1.53l0.05-0.44l0.21-0.37l0.01-0.01L23.35,28.21L23.35,28.21z"/>
	<linearGradient id="SVGID_3_" gradientUnits="userSpaceOnUse" x1="67.0325" y1="71.6018" x2="67.0325" y2="53.2799">
		<stop  offset="0" style="stop-color:#08625F"/>
		<stop  offset="1" style="stop-color:#4CC5C0"/>
	</linearGradient>
	<path class="st2" d="M82.04,68.34c0.24,0.34,0.38,0.75,0.38,1.2c0,1.14-0.93,2.07-2.07,2.07h-17.7v-0.01
		c-0.71,0-1.4-0.37-1.78-1.03l-9.24-16l2.14,0.01l-0.04-0.36l4.75-0.93l14.93,0.28C76.26,58.51,79.16,63.42,82.04,68.34L82.04,68.34
		z"/>
	<linearGradient id="SVGID_4_" gradientUnits="userSpaceOnUse" x1="74.1111" y1="41.1404" x2="21.2044" y2="41.1404">
		<stop  offset="0" style="stop-color:#006A62"/>
		<stop  offset="1" style="stop-color:#5CF3E7"/>
	</linearGradient>
	<path class="st3" d="M28.59,35.77L28.59,35.77l25.3,0c5.23,0,11.91,4.28,14.86,9.5l5.36,9.5H38.96c-8.92,0-23.74-12.77-15.2-27.28
		c-0.44,0.8-0.7,1.72-0.7,2.7C23.07,33.26,25.53,35.74,28.59,35.77L28.59,35.77z"/>
	<linearGradient id="SVGID_5_" gradientUnits="userSpaceOnUse" x1="74.1266" y1="50.2034" x2="24.3074" y2="50.2034">
		<stop  offset="0" style="stop-color:#08625F"/>
		<stop  offset="1" style="stop-color:#4CC5C0"/>
	</linearGradient>
	<path class="st4" d="M24.31,45.63h34.75c5.17,0,11.86,4.06,15.06,9.15H38.96C33.85,54.78,27.35,50.69,24.31,45.63L24.31,45.63z"/>
</g>
</svg>
